# 3ds Max Wavefront OBJ Exporter v0.97b - (c)2007 guruware
# File Created: 24.09.2019 12:14:13

mtllib dksdsda.mtl

#
# object Box001
#

v  -52.5000 170.0000 -100.0000
v  52.5000 170.0000 -100.0000
v  52.5000 120.0776 -100.0000
v  -52.5000 120.0776 -100.0000
v  -52.5000 0.0000 -29.8410
v  52.5000 0.0000 -29.8410
v  52.5000 0.0000 9.6721
v  -52.5000 0.0000 9.6721
v  -52.5000 0.0000 -100.0000
v  52.5000 0.0000 -100.0000
v  45.7489 142.6351 -85.1405
v  45.7489 142.6351 -57.9594
v  45.7489 115.4961 -47.0005
v  45.7489 115.4961 -85.1405
v  52.5000 320.0000 -100.0000
v  -52.5000 320.0000 -100.0000
v  -52.5000 320.0000 -30.0000
v  52.5000 320.0000 -30.0000
v  -46.2683 194.0515 -87.9743
v  -46.2682 194.0515 -62.0257
v  -46.2682 220.0000 -62.0257
v  -46.2683 220.0000 -87.9743
v  52.5000 30.0000 9.6721
v  -52.5000 30.0000 9.6721
v  52.5000 270.0000 -100.0000
v  -52.5000 270.0000 -100.0000
v  52.5000 220.0000 -100.0000
v  -52.5000 220.0000 -100.0000
v  -52.5000 30.0000 -100.0000
v  52.5000 30.0000 -100.0000
v  52.5000 30.0000 -29.8410
v  -52.5000 30.0000 -29.8410
v  52.5000 270.0000 -50.0000
v  46.2682 245.9485 -87.9743
v  46.2682 245.9485 -62.0257
v  46.2682 220.0000 -62.0257
v  46.2682 220.0000 -87.9743
v  46.2682 194.0515 -62.0257
v  46.2682 194.0515 -87.9742
v  45.7489 66.5278 -47.0005
v  45.7489 66.5278 -85.1405
v  -45.7489 66.5278 -85.1405
v  -45.7489 66.5278 -47.0004
v  -45.7489 115.4961 -47.0005
v  -45.7489 115.4961 -85.1405
v  -45.7489 142.6351 -57.9594
v  -45.7489 142.6351 -85.1405
v  -52.5000 270.0000 -50.0000
v  -46.2682 245.9485 -62.0257
v  -46.2683 245.9485 -87.9743
v  27.0049 318.3889 -35.4386
v  -27.0049 318.3889 -35.4386
v  -27.0049 274.9174 -52.8272
v  27.0049 274.9174 -52.8272
v  -52.5000 170.0000 -50.0000
v  52.5000 170.0000 -50.0000
v  52.5000 220.0000 -50.0000
v  -52.5000 220.0000 -50.0000
v  6.9492 138.3848 -38.4262
v  6.9492 151.0038 -43.5218
v  -6.9492 151.0038 -43.5218
v  -6.9492 138.3848 -38.4262
v  -42.9478 38.9937 -29.8410
v  -1.4000 38.9937 -29.8410
v  -1.4000 111.0839 -29.8410
v  -42.9478 111.0839 -29.8410
v  52.5000 152.0962 -90.2780
v  52.5000 117.0801 -90.2780
v  52.5000 152.0962 -55.2075
v  52.5000 120.0776 -29.8410
v  52.5000 117.0801 -41.0678
v  52.5000 53.8988 -41.0678
v  52.5000 53.8988 -90.2780
v  -52.5000 53.8988 -90.2780
v  -52.5000 117.0801 -90.2780
v  -52.5000 53.8988 -41.0678
v  -52.5000 120.0776 -29.8410
v  -52.5000 117.0801 -41.0678
v  -52.5000 152.0962 -55.2075
v  -52.5000 152.0962 -90.2780
v  -52.5000 186.5199 -91.7400
v  -52.5000 220.0000 -91.7400
v  -52.5000 186.5199 -58.2599
v  -52.5000 220.0000 -58.2600
v  -52.5000 253.4801 -58.2599
v  -52.5000 253.4801 -91.7400
v  52.5000 253.4801 -91.7400
v  52.5000 220.0000 -91.7400
v  52.5000 253.4801 -58.2599
v  52.5000 220.0000 -58.2599
v  52.5000 186.5199 -58.2599
v  52.5000 186.5199 -91.7400
v  -28.5725 317.9975 -30.8010
v  28.5725 317.9975 -30.8010
v  -45.5264 308.1829 -42.7171
v  -45.5264 287.3276 -51.0592
v  -35.5461 288.1629 -50.7251
v  -35.5461 307.3477 -43.0512
v  28.5725 272.0025 -49.1990
v  -28.5725 272.0025 -49.1990
v  45.5264 287.3276 -51.0592
v  45.5264 308.1829 -42.7171
v  35.5461 307.3477 -43.0512
v  35.5461 288.1629 -50.7251
v  -47.7955 279.8307 -46.0677
v  -47.7955 310.1693 -33.9322
v  -33.2770 281.0457 -45.5817
v  -33.2770 308.9543 -34.4183
v  47.7956 310.1693 -33.9322
v  47.7956 279.8306 -46.0677
v  33.2770 308.9543 -34.4183
v  33.2770 281.0457 -45.5817
v  44.7132 166.2978 -48.5050
v  44.7132 123.7798 -31.3360
v  -44.7132 166.2978 -48.5050
v  -44.7132 123.7798 -31.3360
v  40.4123 163.0492 -50.6602
v  40.4123 124.6210 -35.1426
v  -40.4123 163.0492 -50.6602
v  -13.4708 163.0492 -50.6602
v  13.4708 163.0492 -50.6602
v  -40.4123 124.6209 -35.1426
v  13.4708 124.6210 -35.1426
v  -13.4708 124.6209 -35.1426
v  34.4531 140.6543 -39.8760
v  34.4531 148.3639 -42.9892
v  19.4300 148.3639 -42.9892
v  19.4300 140.6543 -39.8760
v  -40.4123 162.1232 -52.9532
v  -40.4123 123.6950 -37.4356
v  -13.4708 123.6950 -37.4356
v  -13.4708 162.1232 -52.9532
v  40.4123 162.1232 -52.9532
v  40.4123 123.6950 -37.4356
v  13.4708 162.1232 -52.9532
v  13.4708 123.6950 -37.4356
v  34.4530 146.7639 -46.7510
v  34.4530 139.0543 -43.6378
v  19.4300 146.7639 -46.7510
v  19.4300 139.0543 -43.6378
v  -6.9492 150.1446 -45.4492
v  6.9492 150.1446 -45.4492
v  -6.9492 137.5256 -40.3536
v  6.9492 137.5256 -40.3536
v  45.5480 114.1136 -29.8410
v  45.5480 35.9640 -29.8410
v  -45.5480 114.1135 -29.8410
v  -0.0000 115.0839 -29.8410
v  -45.5480 35.9640 -29.8410
v  0.0000 34.9937 -29.8410
v  42.9478 38.9937 -29.8410
v  42.9478 111.0839 -29.8410
v  1.4000 111.0839 -29.8410
v  1.4000 38.9937 -29.8410
v  1.4000 38.9937 -32.3139
v  -1.4000 38.9937 -32.3139
v  0.0000 34.9937 -32.3139
v  42.9478 38.9937 -32.3139
v  45.5480 35.9640 -32.3139
v  45.5480 114.1136 -32.3139
v  42.9478 111.0839 -32.3139
v  -0.0000 115.0839 -32.3139
v  1.4000 111.0839 -32.3139
v  -42.9478 111.0839 -32.3139
v  -45.5480 114.1135 -32.3139
v  -45.5480 35.9640 -32.3139
v  -42.9478 38.9937 -32.3139
v  -1.4000 111.0839 -32.3139
# 168 vertices

vn 0.0000 0.0000 -1.0000
vn 0.0000 -0.0000 -1.0000
vn 0.0000 -1.0000 -0.0000
vn 1.0000 -0.0000 -0.0000
vn 1.0000 0.0000 -0.0000
vn 0.0000 1.0000 0.0000
vn -1.0000 0.0000 0.0000
vn -1.0000 -0.0000 0.0000
vn -0.0000 -0.0000 1.0000
vn 0.0000 -0.0000 1.0000
vn 1.0000 0.0000 0.0000
vn -0.0000 -0.3714 0.9285
vn 0.0000 -0.3714 0.9285
vn -0.0000 0.1907 0.9816
vn 0.0000 0.1907 0.9816
vn -0.0000 -0.1891 0.9820
vn 0.0000 -0.1891 0.9820
vn -0.0000 0.3744 0.9273
vn 0.0000 0.3744 0.9273
vn 0.0000 0.0000 1.0000
vn -1.0000 -0.0000 -0.0000
vn -1.0000 0.0000 -0.0000
vn 0.4701 -0.0000 0.8826
vn 0.7003 -0.7139 -0.0000
vn 0.5342 -0.3165 -0.7839
vn 0.5363 -0.1644 -0.8279
vn 0.5360 -0.1569 -0.8295
vn 0.5239 -0.0000 -0.8517
vn 0.7948 0.6069 0.0000
vn 0.4701 0.0000 0.8826
vn -0.4701 -0.0000 0.8826
vn -0.7948 0.6069 0.0000
vn -0.5239 -0.0000 -0.8517
vn -0.5363 -0.1644 -0.8279
vn -0.5360 -0.1569 -0.8295
vn -0.5342 -0.3165 -0.7839
vn -0.7003 -0.7139 0.0000
vn -0.3896 -0.0000 0.9210
vn -0.6459 0.7634 0.0000
vn -0.3896 -0.0000 -0.9210
vn -0.3896 0.0000 -0.9210
vn -0.6459 -0.7634 0.0000
vn 0.3896 0.0000 0.9210
vn 0.3896 -0.0000 0.9210
vn 0.6459 -0.7634 -0.0000
vn 0.3896 0.0000 -0.9210
vn 0.3896 -0.0000 -0.9210
vn 0.6459 0.7634 0.0000
vn 0.6459 0.7634 -0.0000
vn 0.0000 -0.9965 -0.0841
vn 0.8933 -0.1669 0.4173
vn 0.0000 0.7796 0.6263
vn -0.8933 -0.1669 0.4173
vn 0.9163 -0.1487 0.3718
vn -0.0526 0.5691 0.8206
vn -0.9163 -0.1487 0.3718
vn -0.0526 -0.9780 0.2018
vn 0.0526 -0.9780 0.2018
vn 0.0526 0.5691 0.8206
vn -0.0999 0.3726 0.9226
vn 0.0999 0.3726 0.9226
vn -0.4636 0.3318 0.8216
vn 0.0000 -0.5528 0.8333
vn 0.4636 0.3318 0.8216
vn -0.0000 0.9764 0.2158
vn 0.0000 -0.9273 0.3744
vn 1.0000 -0.0000 0.0000
vn -0.0000 0.9273 -0.3744
vn 0.0000 0.9202 -0.3914
vn 0.0000 -0.9202 0.3914
vn 0.0000 0.9134 -0.4072
vn 0.0000 -0.9134 0.4072
vn -0.0000 0.0000 1.0000
vn -0.0000 -1.0000 -0.0000
vn -0.0000 1.0000 0.0000
vn -0.8944 0.4472 0.0000
vn 0.0149 -0.9999 -0.0000
vn 0.0149 0.9999 0.0000
vn -0.0149 0.9999 0.0000
vn -0.0149 -0.9999 -0.0000
vn 0.8944 0.4472 0.0000
# 81 vertex normals

vt 0.0000 0.5000 0.0000
vt 1.0000 0.5000 0.0000
vt 1.0000 0.3333 0.0000
vt 0.0000 0.3333 0.0000
vt 1.0000 0.0000 0.0000
vt 0.0000 0.0000 0.0000
vt 0.0000 1.0000 0.0000
vt 1.0000 1.0000 0.0000
vt 0.5000 1.0000 0.0000
vt 0.5000 0.5000 0.0000
vt 0.3333 0.5000 0.0000
vt 0.3333 1.0000 0.0000
vt 0.0000 0.1667 0.0000
vt 1.0000 0.1667 0.0000
vt 1.0000 0.8333 0.0000
vt 0.0000 0.8333 0.0000
vt 1.0000 0.6667 0.0000
vt 0.0000 0.6667 0.0000
vt 0.1667 0.5000 0.0000
vt 0.1667 0.0000 0.0000
vt 0.8333 0.0000 0.0000
vt 0.8333 0.5000 0.0000
vt 0.8333 1.0000 0.0000
vt 0.6667 0.5000 0.0000
vt 0.6667 1.0000 0.0000
vt 0.1667 1.0000 0.0000
vt 0.0000 0.3889 0.0000
vt 0.9444 0.3333 0.0000
vt 0.8889 0.1667 0.0000
vt 0.0000 0.2778 0.0000
vt 0.0026 0.3338 0.0000
vt 0.4711 0.4118 0.0000
vt 0.0000 0.3325 0.0000
vt 0.0000 0.1763 0.0000
vt 0.0000 0.3246 0.0000
vt 0.5263 0.4210 0.0000
vt 0.9711 0.4952 0.0000
vt 0.0263 0.4947 0.0000
vt 0.0263 0.3386 0.0000
vt 0.5026 0.4171 0.0000
# 40 texture coords

o Box001
g Box001
usemtl default
s 1
f 1/1/1 2/2/1 3/3/1 
f 3/3/1 4/4/2 1/1/1 
s 2
f 5/1/3 6/2/3 7/5/3 
f 7/5/3 8/6/3 5/1/3 
f 9/7/3 10/8/3 6/2/3 
f 6/2/3 5/1/3 9/7/3 
s 1
f 11/9/4 12/10/5 13/11/4 
f 13/11/4 14/12/4 11/9/4 
s 2
f 15/7/6 16/8/6 17/2/6 
f 17/2/6 18/1/6 15/7/6 
s 1
f 19/9/7 20/10/7 21/11/8 
f 21/11/8 22/12/8 19/9/7 
f 8/5/9 7/6/10 23/13/9 
f 23/13/9 24/14/9 8/5/9 
f 16/7/2 15/8/2 25/15/1 
f 25/15/1 26/16/1 16/7/2 
f 26/16/1 25/15/1 27/17/1 
f 27/17/1 28/18/1 26/16/1 
f 28/18/1 27/17/1 2/2/1 
f 2/2/1 1/1/1 28/18/1 
f 10/5/1 9/6/1 29/13/1 
f 29/13/1 30/14/1 10/5/1 
f 30/14/1 29/13/1 4/4/2 
f 4/4/2 3/3/1 30/14/1 
s 4
f 7/6/4 6/1/4 31/19/4 
f 31/19/4 23/20/4 7/6/4 
f 5/2/7 8/5/7 24/21/7 
f 24/21/7 32/22/7 5/2/7 
f 15/8/5 18/2/5 33/22/5 
f 33/22/5 25/23/4 15/8/5 
s 1
f 34/23/5 35/22/5 36/24/5 
f 36/24/5 37/25/5 34/23/5 
f 37/25/5 36/24/5 38/10/5 
f 38/10/5 39/9/5 37/25/5 
s 4
f 6/1/4 10/7/5 30/26/4 
f 30/26/4 31/19/4 6/1/4 
s 1
f 40/19/5 41/26/11 14/12/4 
f 14/12/4 13/11/4 40/19/5 
s 4
f 9/8/7 5/2/7 32/22/7 
f 32/22/7 29/23/8 9/8/7 
s 1
f 42/23/8 43/22/8 44/24/7 
f 44/24/7 45/25/7 42/23/8 
f 45/25/7 44/24/7 46/10/7 
f 46/10/7 47/9/8 45/25/7 
s 4
f 17/1/8 16/7/8 26/26/7 
f 26/26/7 48/19/8 17/1/8 
s 1
f 49/19/8 50/26/8 22/12/8 
f 22/12/8 21/11/8 49/19/8 
s 2
f 24/7/6 23/6/6 31/2/6 
f 31/2/6 32/4/6 24/7/6 
s 1
f 51/7/12 52/8/13 53/20/12 
f 53/20/12 54/13/12 51/7/12 
f 55/21/14 56/2/15 57/1/10 
f 58/14/9 55/21/14 57/1/10 
f 58/14/9 57/1/10 33/13/16 
f 48/20/17 58/14/9 33/13/16 
f 59/27/18 60/28/19 61/29/18 
f 61/29/18 62/30/18 59/27/18 
f 63/31/20 64/32/20 65/33/20 
f 65/33/20 66/34/20 63/31/20 
s 4
f 3/12/4 2/9/4 67/9/4 
f 67/9/4 68/12/4 3/12/4 
f 2/9/4 56/10/4 69/10/4 
f 69/10/4 67/9/4 2/9/4 
f 56/10/4 70/11/4 71/11/4 
f 71/11/4 69/10/4 56/10/4 
f 70/11/4 31/19/4 72/19/5 
f 72/19/5 71/11/4 70/11/4 
f 31/19/4 30/26/4 73/26/5 
f 73/26/5 72/19/5 31/19/4 
f 30/26/4 3/12/4 68/12/4 
f 68/12/4 73/26/5 30/26/4 
f 4/25/7 29/23/8 74/23/8 
f 74/23/8 75/25/7 4/25/7 
f 29/23/8 32/22/7 76/22/21 
f 76/22/21 74/23/8 29/23/8 
f 32/22/7 77/24/22 78/24/22 
f 78/24/22 76/22/21 32/22/7 
f 77/24/22 55/10/7 79/10/22 
f 79/10/22 78/24/22 77/24/22 
f 55/10/7 1/9/7 80/9/7 
f 80/9/7 79/10/22 55/10/7 
f 1/9/7 4/25/7 75/25/7 
f 75/25/7 80/9/7 1/9/7 
s 2
f 68/12/23 67/9/23 11/9/23 
f 11/9/23 14/12/23 68/12/23 
s 8
f 67/9/24 69/10/24 12/10/24 
f 12/10/24 11/9/24 67/9/24 
s 2
f 69/10/25 71/11/26 13/11/27 
f 13/11/27 12/10/25 69/10/25 
f 71/11/26 72/19/28 40/19/28 
f 40/19/28 13/11/27 71/11/26 
s 8
f 72/19/29 73/26/29 41/26/29 
f 41/26/29 40/19/29 72/19/29 
s 2
f 73/26/30 68/12/23 14/12/23 
f 14/12/23 41/26/30 73/26/30 
f 75/25/31 74/23/31 42/23/31 
f 42/23/31 45/25/31 75/25/31 
s 8
f 74/23/32 76/22/32 43/22/32 
f 43/22/32 42/23/32 74/23/32 
s 2
f 76/22/33 78/24/34 44/24/35 
f 44/24/35 43/22/33 76/22/33 
f 78/24/34 79/10/36 46/10/36 
f 46/10/36 44/24/35 78/24/34 
s 8
f 79/10/37 80/9/37 47/9/37 
f 47/9/37 46/10/37 79/10/37 
s 2
f 80/9/31 75/25/31 45/25/31 
f 45/25/31 47/9/31 80/9/31 
s 4
f 28/12/22 1/9/7 81/9/8 
f 81/9/8 82/12/22 28/12/22 
f 1/9/7 55/10/7 83/10/7 
f 83/10/7 81/9/8 1/9/7 
f 55/10/7 58/11/22 84/11/22 
f 84/11/22 83/10/7 55/10/7 
f 58/11/22 48/19/8 85/19/8 
f 85/19/8 84/11/22 58/11/22 
f 48/19/8 26/26/7 86/26/7 
f 86/26/7 85/19/8 48/19/8 
f 26/26/7 28/12/22 82/12/22 
f 82/12/22 86/26/7 26/26/7 
f 27/25/5 25/23/4 87/23/4 
f 87/23/4 88/25/5 27/25/5 
f 25/23/4 33/22/5 89/22/5 
f 89/22/5 87/23/4 25/23/4 
f 33/22/5 57/24/5 90/24/5 
f 90/24/5 89/22/5 33/22/5 
f 57/24/5 56/10/4 91/10/4 
f 91/10/4 90/24/5 57/24/5 
f 56/10/4 2/9/4 92/9/5 
f 92/9/5 91/10/4 56/10/4 
f 2/9/4 27/25/5 88/25/5 
f 88/25/5 92/9/5 2/9/4 
s 2
f 82/12/38 81/9/38 19/9/38 
f 19/9/38 22/12/38 82/12/38 
s 8
f 81/9/39 83/10/39 20/10/39 
f 20/10/39 19/9/39 81/9/39 
s 2
f 83/10/40 84/11/41 21/11/41 
f 21/11/41 20/10/40 83/10/40 
f 84/11/41 85/19/41 49/19/41 
f 49/19/41 21/11/41 84/11/41 
s 8
f 85/19/42 86/26/42 50/26/42 
f 50/26/42 49/19/42 85/19/42 
s 2
f 86/26/38 82/12/38 22/12/38 
f 22/12/38 50/26/38 86/26/38 
f 88/25/43 87/23/44 34/23/44 
f 34/23/44 37/25/43 88/25/43 
s 8
f 87/23/45 89/22/45 35/22/45 
f 35/22/45 34/23/45 87/23/45 
s 2
f 89/22/46 90/24/46 36/24/46 
f 36/24/46 35/22/46 89/22/46 
f 90/24/46 91/10/47 38/10/47 
f 38/10/47 36/24/46 90/24/46 
s 8
f 91/10/48 92/9/49 39/9/49 
f 39/9/49 38/10/48 91/10/48 
s 2
f 92/9/43 88/25/43 37/25/43 
f 37/25/43 39/9/43 92/9/43 
s 1
f 18/7/12 17/8/13 93/8/13 
f 93/8/13 94/7/12 18/7/12 
f 95/8/13 96/20/13 97/20/13 
f 97/20/13 98/8/13 95/8/13 
f 48/20/17 33/13/16 99/13/12 
f 99/13/12 100/20/12 48/20/17 
f 101/13/12 102/7/12 103/7/12 
f 103/7/12 104/13/12 101/13/12 
s 2
f 94/7/50 93/8/50 52/8/50 
f 52/8/50 51/7/50 94/7/50 
s 4
f 93/8/51 100/20/51 53/20/51 
f 53/20/51 52/8/51 93/8/51 
s 2
f 100/20/52 99/13/52 54/13/52 
f 54/13/52 53/20/52 100/20/52 
s 4
f 99/13/53 94/7/53 51/7/53 
f 51/7/53 54/13/53 99/13/53 
s 1
f 17/8/13 48/20/17 105/20/13 
f 105/20/13 106/8/12 17/8/13 
f 48/20/17 100/20/12 107/20/12 
f 107/20/12 105/20/13 48/20/17 
f 100/20/12 93/8/13 108/8/13 
f 108/8/13 107/20/12 100/20/12 
f 93/8/13 17/8/13 106/8/12 
f 106/8/12 108/8/13 93/8/13 
f 33/13/16 18/7/12 109/7/12 
f 109/7/12 110/13/13 33/13/16 
f 18/7/12 94/7/12 111/7/12 
f 111/7/12 109/7/12 18/7/12 
f 94/7/12 99/13/12 112/13/12 
f 112/13/12 111/7/12 94/7/12 
f 99/13/12 33/13/16 110/13/13 
f 110/13/13 112/13/12 99/13/12 
s 2
f 106/8/54 105/20/54 96/20/54 
f 96/20/54 95/8/54 106/8/54 
s 4
f 105/20/55 107/20/55 97/20/55 
f 97/20/55 96/20/55 105/20/55 
s 2
f 107/20/56 108/8/56 98/8/56 
f 98/8/56 97/20/56 107/20/56 
s 4
f 108/8/57 106/8/57 95/8/57 
f 95/8/57 98/8/57 108/8/57 
s 2
f 110/13/56 109/7/56 102/7/56 
f 102/7/56 101/13/56 110/13/56 
s 4
f 109/7/58 111/7/58 103/7/58 
f 103/7/58 102/7/58 109/7/58 
s 2
f 111/7/54 112/13/54 104/13/54 
f 104/13/54 103/7/54 111/7/54 
s 4
f 112/13/59 110/13/59 101/13/59 
f 101/13/59 104/13/59 112/13/59 
s 1
f 70/1/14 56/2/15 113/2/60 
f 113/2/60 114/1/60 70/1/14 
f 56/2/15 55/21/14 115/21/61 
f 115/21/61 113/2/60 56/2/15 
f 55/21/14 77/13/15 116/13/61 
f 116/13/61 115/21/61 55/21/14 
f 77/13/15 70/1/14 114/1/60 
f 114/1/60 116/13/61 77/13/15 
f 114/1/60 113/2/60 117/2/62 
f 117/2/62 118/1/62 114/1/60 
s 2
f 113/2/63 115/21/63 119/21/63 
f 113/2/63 119/21/63 120/29/63 
f 113/2/63 120/29/63 121/28/63 
f 113/2/63 121/28/63 117/2/63 
s 1
f 115/21/61 116/13/61 122/13/64 
f 122/13/64 119/21/64 115/21/61 
s 2
f 116/13/65 114/1/65 118/1/65 
f 116/13/65 118/1/65 123/27/65 
f 116/13/65 123/27/65 124/30/65 
f 116/13/65 124/30/65 122/13/65 
s 1
f 125/1/19 126/2/19 127/28/19 
f 127/28/19 128/27/19 125/1/19 
f 129/21/18 130/13/18 131/30/18 
f 131/30/18 132/29/19 129/21/18 
s 4
f 118/1/22 117/2/22 133/2/22 
f 133/2/22 134/1/22 118/1/22 
s 8
f 117/2/66 121/28/66 135/28/66 
f 135/28/66 133/2/66 117/2/66 
s 1
f 121/28/67 123/27/67 136/27/67 
f 136/27/67 135/28/67 121/28/67 
s 8
f 123/27/68 118/1/68 134/1/68 
f 134/1/68 136/27/68 123/27/68 
s 4
f 119/21/67 122/13/67 130/13/67 
f 130/13/67 129/21/67 119/21/67 
s 8
f 122/13/68 124/30/68 131/30/68 
f 131/30/68 130/13/68 122/13/68 
s 4
f 124/30/22 120/29/22 132/29/22 
f 132/29/22 131/30/22 124/30/22 
s 8
f 120/29/66 119/21/66 129/21/66 
f 129/21/66 132/29/66 120/29/66 
s 2
f 134/1/18 133/2/18 137/2/18 
f 137/2/18 138/1/18 134/1/18 
f 133/2/18 135/28/19 139/28/19 
f 139/28/19 137/2/18 133/2/18 
f 135/28/19 136/27/19 140/27/19 
f 140/27/19 139/28/19 135/28/19 
f 136/27/19 134/1/18 138/1/18 
f 138/1/18 140/27/19 136/27/19 
s 4
f 138/1/4 137/2/4 126/2/4 
f 126/2/4 125/1/4 138/1/4 
s 8
f 137/2/69 139/28/69 127/28/69 
f 127/28/69 126/2/69 137/2/69 
s 4
f 139/28/7 140/27/7 128/27/7 
f 128/27/7 127/28/7 139/28/7 
s 8
f 140/27/70 138/1/70 125/1/70 
f 125/1/70 128/27/70 140/27/70 
s 16
f 121/28/18 120/29/19 141/29/19 
f 141/29/19 142/28/18 121/28/18 
f 120/29/19 124/30/18 143/30/19 
f 143/30/19 141/29/19 120/29/19 
f 124/30/18 123/27/18 144/27/19 
f 144/27/19 143/30/19 124/30/18 
f 123/27/18 121/28/18 142/28/18 
f 142/28/18 144/27/19 123/27/18 
s 2
f 142/28/71 141/29/71 61/29/71 
f 61/29/71 60/28/71 142/28/71 
s 4
f 141/29/22 143/30/22 62/30/22 
f 62/30/22 61/29/22 141/29/22 
s 2
f 143/30/72 144/27/72 59/27/72 
f 59/27/72 62/30/72 143/30/72 
s 4
f 144/27/4 142/28/67 60/28/67 
f 60/28/67 59/27/4 144/27/4 
s 1
f 31/2/20 70/1/14 145/1/73 
f 145/1/73 146/2/20 31/2/20 
f 70/1/14 77/13/15 147/13/73 
f 70/1/14 147/13/73 148/35/10 
f 70/1/14 148/35/10 145/1/73 
f 77/13/15 32/4/20 149/4/20 
f 149/4/20 147/13/73 77/13/15 
f 32/4/20 31/2/20 146/2/20 
f 32/4/20 146/2/20 150/36/10 
f 32/4/20 150/36/10 149/4/20 
f 151/37/20 152/38/20 153/39/20 
f 153/39/20 154/40/20 151/37/20 
f 148/35/10 65/33/20 153/39/20 
f 155/40/20 156/32/20 157/36/10 
f 158/37/20 159/2/20 160/1/73 
f 160/1/73 161/38/73 158/37/20 
f 161/38/73 160/1/73 162/35/10 
f 162/35/10 163/39/10 161/38/73 
f 164/34/20 165/13/20 166/4/73 
f 166/4/73 167/31/73 164/34/20 
f 167/31/73 166/4/73 157/36/10 
f 157/36/10 156/32/20 167/31/73 
f 168/33/10 162/35/10 165/13/20 
f 165/13/20 164/34/20 168/33/10 
f 155/40/20 157/36/10 159/2/20 
f 159/2/20 158/37/20 155/40/20 
f 156/32/20 155/40/20 163/39/20 
f 163/39/20 168/33/20 156/32/20 
s off
f 152/38/5 151/37/5 158/37/5 
f 158/37/5 161/38/5 152/38/5 
f 151/37/3 154/40/3 155/40/3 
f 155/40/3 158/37/3 151/37/3 
f 154/40/21 153/39/21 163/39/21 
f 163/39/21 155/40/21 154/40/21 
f 153/39/3 65/33/3 168/33/3 
f 168/33/3 163/39/3 153/39/3 
f 65/33/11 64/32/11 156/32/11 
f 156/32/11 168/33/11 65/33/11 
f 64/32/74 63/31/74 167/31/74 
f 167/31/74 156/32/74 64/32/74 
f 63/31/21 66/34/21 164/34/21 
f 164/34/21 167/31/21 63/31/21 
f 66/34/75 65/33/75 168/33/75 
f 168/33/75 164/34/75 66/34/75 
f 65/33/76 148/35/76 162/35/76 
f 162/35/76 168/33/76 65/33/76 
f 148/35/77 147/13/77 165/13/77 
f 165/13/77 162/35/77 148/35/77 
f 147/13/11 149/4/11 166/4/11 
f 166/4/11 165/13/11 147/13/11 
f 149/4/78 150/36/78 157/36/78 
f 157/36/78 166/4/78 149/4/78 
f 150/36/79 146/2/79 159/2/79 
f 159/2/79 157/36/79 150/36/79 
f 146/2/22 145/1/22 160/1/22 
f 160/1/22 159/2/22 146/2/22 
f 145/1/80 148/35/80 162/35/80 
f 162/35/80 160/1/80 145/1/80 
f 148/35/81 153/39/81 163/39/81 
f 163/39/81 162/35/81 148/35/81 
f 153/39/75 152/38/75 161/38/75 
f 161/38/75 163/39/75 153/39/75 
# 338 faces

